Coordinates
version=1
nRows=32
nColumns=12
inDegrees=yes

Units are S.I. units (second, meters, Newtons, ...)
Angles are in degrees

endheader
time	SC_y	SC_z	SC_x	AC_y	AC_z	AC_x	GH_y	GH_z	GH_yy	EL_x	PS_y
       0.0              -33.79          9.596           2.62          59.86        -0.7608          17.09         -140.5          46.76          172.7          64.91          97.65
  0.004113               -33.8            9.6          2.621          59.86        -0.7636          17.09         -140.5          46.76          172.7          64.91          97.64
  0.008227               -33.8          9.603          2.621          59.87        -0.7666          17.09         -140.4          46.77          172.7          64.91          97.62
   0.01234               -33.8          9.607          2.622          59.87        -0.7697          17.09         -140.4          46.77          172.7           64.9          97.61
   0.01645               -33.8          9.611          2.623          59.87        -0.7731          17.09         -140.3          46.77          172.6           64.9          97.59
   0.02057              -33.81          9.615          2.624          59.87        -0.7767          17.09         -140.3          46.77          172.6           64.9          97.58
   0.02468              -33.81           9.62          2.625          59.87        -0.7805          17.09         -140.3          46.78          172.6          64.89          97.56
   0.02879              -33.81          9.624          2.626          59.87        -0.7846          17.09         -140.2          46.78          172.6          64.89          97.54
   0.03291              -33.81           9.63          2.627          59.88         -0.789          17.09         -140.2          46.78          172.6          64.89          97.53
   0.03702              -33.82          9.635          2.628          59.88        -0.7937          17.09         -140.1          46.78          172.6          64.88           97.5
   0.04113              -33.82          9.641           2.63          59.88        -0.7987          17.09         -140.1          46.79          172.5          64.88          97.48
   0.04525              -33.83          9.647          2.631          59.88        -0.8041          17.09         -140.0          46.79          172.5          64.87          97.46
   0.04936              -33.83          9.654          2.632          59.88          -0.81          17.08         -139.9          46.79          172.5          64.86          97.43
   0.05347              -33.83          9.662          2.634          59.89        -0.8163          17.08         -139.9           46.8          172.5          64.86          97.41
   0.05759              -33.84           9.67          2.636          59.89        -0.8231          17.08         -139.8           46.8          172.4          64.85          97.38
    0.0617              -33.84          9.679          2.638          59.89        -0.8305          17.08         -139.7          46.81          172.4          64.84          97.34
   0.06581              -33.85          9.688           2.64           59.9        -0.8386          17.08         -139.6          46.81          172.4          64.84          97.31
   0.06993              -33.86          9.698          2.642           59.9        -0.8474          17.08         -139.5          46.82          172.3          64.83          97.27
   0.07404              -33.86           9.71          2.644          59.91         -0.857          17.07         -139.4          46.82          172.3          64.82          97.23
   0.07815              -33.87          9.722          2.647          59.91        -0.8675          17.07         -139.3          46.83          172.3          64.81          97.18
   0.08227              -33.88          9.736           2.65          59.91         -0.879          17.07         -139.2          46.84          172.2           64.8          97.13
   0.08638              -33.89          9.751          2.653          59.92        -0.8917          17.07         -139.0          46.85          172.2          64.78          97.08
   0.09049               -33.9          9.767          2.657          59.93        -0.9057          17.06         -138.9          46.86          172.1          64.77          97.02
   0.09461              -33.91          9.786          2.661          59.93        -0.9212          17.06         -138.7          46.87          172.0          64.75          96.95
   0.09872              -33.92          9.806          2.665          59.94        -0.9384          17.06         -138.5          46.88          172.0          64.74          96.87
    0.1028              -33.93          9.829           2.67          59.95        -0.9577          17.05         -138.3          46.89          171.9          64.72          96.79
    0.1069              -33.95          9.854          2.675          59.96        -0.9792          17.05         -138.0           46.9          171.8           64.7           96.7
    0.1111              -33.97          9.883          2.682          59.97         -1.004          17.04         -137.7          46.92          171.7          64.67          96.59
    0.1152              -33.99          9.915          2.689          59.98         -1.031          17.04         -137.4          46.94          171.6          64.65          96.47
    0.1193              -34.01          9.952          2.696          59.99         -1.062          17.03         -137.1          46.96          171.5          64.62          96.34
    0.1234              -34.03          9.994          2.705          60.01         -1.098          17.02         -136.7          46.98          171.3          64.58          96.18
    0.1275              -34.06          10.04          2.716          60.03         -1.138          17.02         -136.2           47.0          171.2          64.54           96.0
